PathFileType	4	(X/Y/Z)	Patient4_TMGait_0pt5_01_right_26.trc.trc
DataRate	CameraRate	NumFrames	NumMarkers	Units	OrigDataRate	OrigDataStartFrame	OrigNumFrames
77.348066298342	77.348066298342	5	33	mm	77.348066298342	106	       141
Frame#	Time	L.ASIS			Sacral			L.Shoulder			Chest			R.Shoulder			Neck			R.ASIS			R.Thigh.Superior			R.Thigh.Lateral			R.Thigh.Inferior			R.Patella			L.Thigh.Superior			L.Thigh.Lateral			L.Thigh.Inferior			L.Patella			L.Shank.Superior			L.Shank.Lateral			L.Shank.Inferior			R.Shank.Superior			R.Shank.Lateral			R.Shank.Inferior			R.Heel			R.Midfoot.Superior			R.Midfoot.Lateral			R.Toe			L.Heel			L.Midfoot.Lateral			L.Midfoot.Superior			L.Toe			L.Elbow			L.Wrist			R.Elbow			R.Wrist			
		X1	Y1	Z1	X2	Y2	Z2	X3	Y3	Z3	X4	Y4	Z4	X5	Y5	Z5	X6	Y6	Z6	X7	Y7	Z7	X8	Y8	Z8	X9	Y9	Z9	X10	Y10	Z10	X11	Y11	Z11	X12	Y12	Z12	X13	Y13	Z13	X14	Y14	Z14	X15	Y15	Z15	X16	Y16	Z16	X17	Y17	Z17	X18	Y18	Z18	X19	Y19	Z19	X20	Y20	Z20	X21	Y21	Z21	X22	Y22	Z22	X23	Y23	Z23	X24	Y24	Z24	X25	Y25	Z25	X26	Y26	Z26	X27	Y27	Z27	X28	Y28	Z28	X29	Y29	Z29	X30	Y30	Z30	X31	Y31	Z31	X32	Y32	Z32	X33	Y33	Z33	

106	35.507500000000	838.707281034798	962.763611453973	294.614498827143	616.879877611535	1009.729563395409	441.408933869018	805.432479021404	1434.805044847616	259.598084751867	898.794008614413	1365.788041011167	426.872289007444	806.780700009931	1444.128186708744	595.517651274772	800.775224727057	1498.877865907518	409.718791732827	837.232555205343	948.563403963622	569.204154741355	922.827375666468	778.055650506600	538.462579382725	882.093084334227	656.273613021912	608.234540785684	970.444701821804	617.686798384795	528.208000433094	994.190933204976	510.520595522275	549.780316413659	876.616832122511	747.788258734366	327.371747456956	784.414110981973	637.031485355777	266.183187280117	860.086740396993	555.453236759395	334.249090382919	855.054325774426	485.605598986845	345.109205992262	827.270634186431	415.233379115214	335.718797560522	736.298164521924	302.848960140885	284.535929154060	781.797899309342	191.821897552965	358.482404090468	934.236539849048	427.338181511101	555.359603347925	828.187831775437	359.690568244992	617.379643655447	836.791065460398	251.866604569143	565.473026525565	654.129314612577	145.259554382714	539.530839306857	833.304437915611	132.226921744316	580.310743277620	727.005266901918	106.593841056424	615.050935554154	922.017432504177	39.412912121467	610.454528682689	649.251650917126	37.504110729548	401.011417785264	722.185884038724	34.706868662220	318.814701760819	805.466972603501	95.744011801343	344.773512343021	933.524746351858	45.189232211330	314.110970638052	801.605355438694	1090.293545346995	116.052662875522	982.372319133509	899.485889813608	109.480267105432	758.892090459402	1098.990826360541	711.757114975509	830.294239380324	847.675066051208	724.229744499204	
107	35.520428571429	839.322351819966	962.569380554413	294.891895864424	616.363433162249	1009.829984516721	440.211742116683	807.958770408244	1434.829703745971	260.250161451885	899.531528359962	1365.201150340884	428.269458227400	806.250736669680	1443.517293954287	596.275606873873	802.089062510286	1498.689037546395	410.485260795222	835.919076216842	948.610964112006	569.657294481592	922.064260546278	778.929427861748	538.921100577246	881.909384974374	657.133450267282	609.007374007139	970.037491256194	618.797946712900	528.812099759641	995.525057114075	513.600809485223	550.603746389067	875.077255206310	746.804846608417	327.954547838435	782.035975659828	636.803438070916	266.029582427021	856.477670460755	554.571990785213	334.430852829167	850.651900223200	484.825847580423	345.293725777217	822.684351201471	414.645568185282	335.823119034010	731.275331179968	302.686293400481	284.508899931109	775.958053004124	191.478628292659	358.575885264295	939.576940885333	428.865047365260	556.248817365618	837.607649234873	355.630696426971	618.619007550497	852.032674946358	248.444875906452	566.549282892732	675.564427105527	131.946565612310	540.917796426905	855.296651641549	128.591249499154	581.131611469248	750.709621708735	96.957121738978	616.110797357283	949.030597452482	40.798077971009	610.547548942659	642.744987785822	37.487322015913	400.995573942508	715.676918406788	34.692913093989	318.824240537470	798.988818529716	95.688703277249	344.862718334488	927.049550050310	45.066983617058	314.153251942655	806.876946044062	1091.737125112563	114.123919304446	994.612584829289	907.905420434766	108.059374930989	750.767811409853	1099.807638463309	712.369253863947	808.650436085844	845.354467424043	730.636760879244	
108	35.533357142857	840.049088708280	962.314037858593	295.244994274309	615.961273576449	1009.859079654845	439.149257640529	810.422264800600	1434.753022945188	261.061524456615	900.340177934651	1364.526199469976	429.733576811683	805.930631809157	1442.854080169538	597.164470349226	803.466588713514	1498.405524706883	411.393561514553	834.722446813670	948.476024818451	570.179458800786	921.009151623793	779.297233437259	539.629441381172	881.003124881004	657.565928633914	609.978491172404	968.974208265685	619.338749263899	529.753245630663	996.051884773322	516.307635174331	551.628969375205	873.647687332028	745.795107787917	328.584382417011	779.756235255771	636.536656159227	265.942058003679	852.948039144087	553.665100492852	334.658348676979	846.344059629491	484.032719003909	345.512232376112	818.172295126924	414.024508354631	335.965246945117	726.309364131598	302.516329887094	284.508278416278	770.149953190808	191.119636095060	358.687003506000	944.346045055649	430.234405345967	557.329203009941	846.886181873834	351.481312942326	619.991941084326	867.349735141180	245.283319259327	567.764052905393	697.940959629598	118.914632192914	542.263469387400	877.604705160217	125.564989780769	582.097076643517	775.125188495332	87.860282995700	617.196398029983	976.179379468095	43.256602284465	610.905038847514	636.249531359445	37.480486986800	400.968039877520	709.168847906258	34.681753374847	318.832913849849	792.516916089190	95.631865790236	344.955454151045	920.574047904627	44.941497136946	314.194650566061	812.079445888397	1093.088034591304	112.461676143135	1006.477547059181	916.518263297968	107.006675620985	742.568267228824	1100.877409227756	713.187702466775	787.928612613213	844.369189367749	736.439556235565	
109	35.546285714286	840.890483909444	962.002916316058	295.693477889219	615.705444101212	1009.829711277932	438.229863163033	812.821444570584	1434.600194896010	262.032370485801	901.224727210556	1363.790445172251	431.265677196075	805.820056752369	1442.158266704431	598.180666802496	804.904038702381	1498.048383493325	412.444659658695	833.681507816180	948.183277062946	570.786263933925	919.696138809110	779.164929638919	540.593295097761	879.405720609494	657.573142708468	611.134131471555	967.306406922076	619.326037473157	531.010124040266	995.802751623230	518.620511727568	552.795102448627	872.310672513688	744.758052824476	329.271619510119	777.544121955313	636.245934734480	265.921517294578	849.450639371847	552.735725194463	334.937673770150	842.080249847754	483.236042531834	345.765598028020	813.691534662609	413.386950696350	336.142487262907	721.366745707797	302.347410415829	284.531090109103	764.355523312180	190.756485547660	358.814335055139	948.515969494813	431.465222747825	558.554795207782	855.963941782366	347.356466064854	621.470912815872	882.566327009050	242.510355012248	569.081421783861	720.999887425249	106.467271203092	543.572121474317	899.959352178753	123.293762242740	583.184766453776	799.968547902001	79.537481312566	618.294809384078	1003.108014875222	46.857627479108	611.469922181153	629.761355715968	37.488301775698	400.929042218019	702.660939607715	34.675805171554	318.840196143923	786.049746877313	95.574439304224	345.048962029436	914.095070392071	44.815074526416	314.234555686409	817.200625147934	1094.349779224495	111.097536228161	1017.917409293154	925.280796321419	106.351651450074	734.331926622574	1102.233267730642	714.212434541860	768.273791052094	844.529515600326	741.594372848478	
110	35.559214285714	841.843823237234	961.637027507877	296.259403321946	615.628421146612	1009.749502542923	437.466571662483	815.159546388315	1434.393109885089	263.161480092586	902.186991803262	1363.019322569742	432.870321020997	805.907981498432	1441.445886773545	599.317748682048	806.392571560744	1497.635840663996	413.637575282343	832.835648538101	947.758956878683	571.494826703229	918.179880135045	778.555053422645	541.808250213016	877.194523368745	657.172759613119	612.454707189376	965.117195803724	618.795023151381	532.541067584344	994.839322237821	520.526793679701	554.033320754175	871.047841871811	743.691142218977	330.028163100141	775.368702269028	635.946190706804	265.967879261275	845.940463981505	551.788262497035	335.272087386006	837.811636320687	482.445730133927	346.051877734337	809.200684300445	412.750276696238	336.350987816960	716.415338898595	302.188118356240	284.573788492308	758.556922018521	190.400518260892	358.955485626121	952.072913733306	432.566395321739	559.874097050217	864.761192308050	343.355554263620	623.022952072635	897.476937471823	240.212852410748	570.460555974071	744.389304584108	94.866531830655	544.848994375915	922.043919432034	121.850334572031	584.363007960434	824.877993125888	72.161501537073	619.391309475107	1029.427134882712	51.560255681198	612.175788666831	623.276740274418	37.514727419378	400.881124537264	696.152977819787	34.677577593465	318.845904384362	779.586014814421	95.517315959526	345.140606447287	907.610293615793	44.689404730591	314.272354155131	822.222304748876	1095.523567711973	110.059281456867	1028.881257434162	934.136348385167	106.116489912926	726.122433292933	1103.889196973353	715.427993146128	749.791798506461	845.631044277626	746.083878801161	
